<svg xmlns="http://www.w3.org/2000/svg" viewBox="0 0 2048 2048">
<g transform="translate(0,2048) scale(1,-1)">
<path d="M1427 1235Q1527 1231 1619 1168Q1707 1107 1775.5 999.5Q1844 892 1881 756Q1920 614 1920 462Q1920 333 1884.0 239.5Q1848 146 1778.5 95.5Q1709 45 1611 45Q1524 45 1458.0 80.5Q1392 116 1323 201Q1262 278 1172 428L1084 576Q1052 629 1024 674L893 441Q823 319 766.0 241.5Q709 164 658 120Q609 78 557 61Q512 45 453 45Q352 45 279.0 94.5Q206 144 167.0 236.5Q128 329 128 454Q128 603 167 746Q206 885 276 996Q348 1108 439 1170Q537 1235 643 1235H669Q769 1228 858 1170Q949 1111 1048 984Q1136 1103 1215 1163Q1312 1235 1414 1235ZM640 1041Q577 1041 518 990Q461 941 416.5 856.0Q372 771 347 666Q322 559 322 451Q322 349 358.5 293.5Q395 238 461 238Q504 238 539 261Q577 285 626 349Q671 407 750 530Q815 634 933 815Q873 900 824.5 949.5Q776 999 731 1020Q689 1041 640 1041ZM1402 1082Q1334 1082 1270 1027Q1209 976 1136 863Q1176 804 1218 735L1323 560Q1392 449 1426 398Q1469 333 1499.0 299.0Q1529 265 1555.5 251.5Q1582 238 1615 238Q1682 238 1715.5 292.5Q1749 347 1749 449Q1749 577 1722 695Q1696 809 1648.0 896.5Q1600 984 1538 1032Q1473 1082 1402 1082Z" fill="currentColor"/>
</g>
</svg>