<svg width="755" height="157" viewBox="0 0 755 157" fill="none" xmlns="http://www.w3.org/2000/svg">
<path d="M2.976 43V9.4H29.856V17.56H12.288V23.272H28.176V31H12.288V43H2.976ZM50.997 43.672C40.629 43.672 32.949 35.944 32.949 26.296V26.2C32.949 16.552 40.725 8.728 51.093 8.728C61.461 8.728 69.141 16.456 69.141 26.104V26.2C69.141 35.848 61.365 43.672 50.997 43.672ZM51.093 35.272C56.229 35.272 59.637 31.144 59.637 26.296V26.2C59.637 21.352 56.133 17.128 50.997 17.128C45.909 17.128 42.501 21.256 42.501 26.104V26.2C42.501 31.048 46.005 35.272 51.093 35.272ZM89.1116 43.624C79.5596 43.624 73.5596 38.776 73.5596 28.264V9.4H83.0156V28.072C83.0156 32.92 85.4636 35.224 89.2076 35.224C92.9516 35.224 95.3996 33.016 95.3996 28.312V9.4H104.856V28.024C104.856 38.872 98.6636 43.624 89.1116 43.624ZM110.367 43V9.4H119.055L132.879 27.16V9.4H142.095V43H133.935L119.583 24.568V43H110.367ZM148.054 43V9.4H161.014C173.014 9.4 179.974 16.312 179.974 26.008V26.104C179.974 35.8 172.918 43 160.822 43H148.054ZM157.366 34.744H161.158C166.726 34.744 170.422 31.672 170.422 26.248V26.152C170.422 20.776 166.726 17.656 161.158 17.656H157.366V34.744ZM179.679 43L193.983 9.16H202.959L217.263 43H207.279L204.831 37H191.871L189.471 43H179.679ZM194.607 29.752H202.143L198.399 20.2L194.607 29.752ZM224.418 43V17.56H214.338V9.4H243.81V17.56H233.73V43H224.418ZM248.09 43V9.4H257.45V43H248.09ZM280.497 43.672C270.129 43.672 262.449 35.944 262.449 26.296V26.2C262.449 16.552 270.225 8.728 280.593 8.728C290.961 8.728 298.641 16.456 298.641 26.104V26.2C298.641 35.848 290.865 43.672 280.497 43.672ZM280.593 35.272C285.729 35.272 289.137 31.144 289.137 26.296V26.2C289.137 21.352 285.633 17.128 280.497 17.128C275.409 17.128 272.001 21.256 272.001 26.104V26.2C272.001 31.048 275.505 35.272 280.593 35.272ZM303.492 43V9.4H312.18L326.004 27.16V9.4H335.22V43H327.06L312.708 24.568V43H303.492ZM369.612 43.624C360.06 43.624 354.06 38.776 354.06 28.264V9.4H363.516V28.072C363.516 32.92 365.964 35.224 369.708 35.224C373.452 35.224 375.9 33.016 375.9 28.312V9.4H385.356V28.024C385.356 38.872 379.164 43.624 369.612 43.624ZM391.059 43V9.4H400.419V43H391.059Z" fill="white"/>
<path d="M39.092 147.392C24.708 147.392 11.02 142.868 1.044 133.936L13.572 118.972C21.576 125.352 30.508 128.716 39.904 128.716C45.936 128.716 49.184 126.628 49.184 123.148V122.916C49.184 119.552 46.516 117.696 35.496 115.144C18.212 111.2 4.872 106.328 4.872 89.624V89.392C4.872 74.312 16.82 63.408 36.308 63.408C50.112 63.408 60.9 67.12 69.716 74.196L58.464 90.088C51.04 84.868 42.92 82.084 35.728 82.084C30.276 82.084 27.608 84.404 27.608 87.304V87.536C27.608 91.248 30.392 92.872 41.644 95.424C60.32 99.484 71.92 105.516 71.92 120.712V120.944C71.92 137.532 58.812 147.392 39.092 147.392ZM98.1143 146V84.52H73.7543V64.8H144.978V84.52H120.618V146H98.1143Z" fill="white"/>
<path fill-rule="evenodd" clip-rule="evenodd" d="M211.874 146L148 128.763L165.127 65L197.063 73.619L229 82.2367L211.874 146ZM181.972 94.1486L199.801 99.0536L195.027 116.851L177.198 111.946L181.972 94.1486Z" fill="white"/>
<path d="M236.192 146V64.8H274.588C287 64.8 295.584 68.048 301.036 73.616C305.792 78.256 308.228 84.52 308.228 92.524V92.756C308.228 105.168 301.616 113.404 291.524 117.696L310.896 146H284.912L268.556 121.408H258.696V146H236.192ZM258.696 103.776H273.544C281.2 103.776 285.608 100.064 285.608 94.148V93.916C285.608 87.536 280.968 84.288 273.428 84.288H258.696V103.776ZM340.054 146V115.608L309.198 64.8H334.834L351.538 94.38L368.358 64.8H393.53L362.674 115.26V146H340.054ZM400.45 146V64.8H442.094C452.302 64.8 459.494 67.352 464.25 72.108C467.498 75.356 469.47 79.648 469.47 85.216V85.448C469.47 94.844 464.134 100.412 456.942 103.544C466.802 106.792 473.066 112.36 473.066 123.38V123.612C473.066 137.532 461.698 146 442.326 146H400.45ZM422.374 97.164H436.526C443.37 97.164 447.198 94.844 447.198 90.088V89.856C447.198 85.448 443.718 82.896 436.99 82.896H422.374V97.164ZM422.374 127.904H439.774C446.618 127.904 450.562 125.236 450.562 120.48V120.248C450.562 115.84 447.082 112.94 439.542 112.94H422.374V127.904ZM524.204 147.624C499.148 147.624 480.588 128.948 480.588 105.632V105.4C480.588 82.084 499.38 63.176 524.436 63.176C549.492 63.176 568.052 81.852 568.052 105.168V105.4C568.052 128.716 549.26 147.624 524.204 147.624ZM524.436 127.324C536.848 127.324 545.084 117.348 545.084 105.632V105.4C545.084 93.684 536.616 83.476 524.204 83.476C511.908 83.476 503.672 93.452 503.672 105.168V105.4C503.672 117.116 512.14 127.324 524.436 127.324ZM620.606 147.624C595.55 147.624 576.99 128.948 576.99 105.632V105.4C576.99 82.084 595.782 63.176 620.838 63.176C645.894 63.176 664.454 81.852 664.454 105.168V105.4C664.454 128.716 645.662 147.624 620.606 147.624ZM620.838 127.324C633.25 127.324 641.486 117.348 641.486 105.632V105.4C641.486 93.684 633.018 83.476 620.606 83.476C608.31 83.476 600.074 93.452 600.074 105.168V105.4C600.074 117.116 608.542 127.324 620.838 127.324ZM676.176 146V64.8H698.68V97.744L726.636 64.8H753.316L722.576 99.716L754.36 146H727.332L706.916 115.84L698.68 125.004V146H676.176Z" fill="white"/>
</svg>
